<svg width="34" height="20" xmlns="http://www.w3.org/2000/svg"><defs><linearGradient x1=".008%" y1="50%" x2="100%" y2="50%" id="b"><stop stop-color="#00B4E6" offset="30%"/><stop stop-color="#088CCB" offset="100%"/></linearGradient><rect id="a" x="0" y="0" width="34" height="20" rx="4"/></defs><g fill="none" fill-rule="evenodd"><path d="M9.162 5.188v.004c-.004 0-1.328-.004-1.681 1.26-.324 1.16-1.236 4.363-1.261 4.452h-.252S5.035 7.63 4.707 6.449c-.353-1.265-1.681-1.261-1.681-1.261H0v9.624h3.026V9.096h.252l1.765 5.716h2.102L8.91 9.101h.252v5.711h3.026V5.188H9.162zM20.215 5.188s-.887.08-1.303 1.009l-2.143 4.707h-.252V5.188H13.49v9.624h2.858s.928-.084 1.344-1.009l2.102-4.707h.252v5.716h3.026V5.188h-2.858zM24.418 9.559v5.253h3.026v-3.068h3.278c1.429 0 2.64-.912 3.089-2.185h-9.393z" fill="#4DB45E"/><path d="M6.766 0H.038A4.835 4.835 0 004.79 3.95h5.186a3.23 3.23 0 00.067-.672A3.277 3.277 0 006.766 0z" transform="translate(23.956 5.188)" fill="url(#b)"/></g></svg>